# xmcd
#
# Track frame offsets:
#	150
#	20315
#	38268
#	60235
#	81320
#	101742
#	125022
#	145989
#	166198
#	184597
#	206856
#	225959
#	247070
#	265070
#	286100
#	302464
#	318679
#
# Disc length: 4496 seconds
#
# Revision: 3
# Processed by: cddbd v1.5.2PL0 Copyright (c) Steve Scherf et al.
# Submitted via: EasyCDDAExtractor 15.3.0.1
#
DISCID=df118e11
DTITLE=Ricky Martin - 17
DYEAR=2008
DGENRE=Latin
TTITLE0=Fuego Contra Fuego
TTITLE1=El Amor De Mi Vida
TTITLE2=Que Dia Es Hoy (Self-Control) (Remix)
TTITLE3=Te Extraño, Te Olvido, Te Amo
TTITLE4=Maria (Remix Spanglish Version)
TTITLE5=Vuelve
TTITLE6=La Copa De La Vida (Spanglish Version)
TTITLE7=La Bomba (Remix)
TTITLE8=Livin' La Vida Loca
TTITLE9=Bella (She's All I Ever Had)
TTITLE10=Nobody Wants To Be Lonely (Featuring Christina Aguilera)
TTITLE11=Tal Vez
TTITLE12=Asignatura Pendiente
TTITLE13=Y Todo Queda En Nada
TTITLE14=I Don't Care (Remix) (Featuring Fat Joe and Amerie)
TTITLE15=Dejate Llevar (It's Alright)
TTITLE16=Tu Recuerdo (Live) (Featuring La Mari)
EXTD=
EXTT0=
EXTT1=
EXTT2=
EXTT3=
EXTT4=
EXTT5=
EXTT6=
EXTT7=
EXTT8=
EXTT9=
EXTT10=
EXTT11=
EXTT12=
EXTT13=
EXTT14=
EXTT15=
EXTT16=
PLAYORDER=
